<svg xmlns="http://www.w3.org/2000/svg" style="display:none">
  <symbol id="i-zap" viewBox="0 0 24 24">
    <path d="M13 2 4 14h6l-1 8 9-12h-6l1-8Z"/>
  </symbol>
  <symbol id="i-chevron-right" viewBox="0 0 24 24">
    <path d="m9 18 6-6-6-6"/>
  </symbol>
  <symbol id="i-send" viewBox="0 0 24 24">
    <path d="M22 2 11 13"/>
    <path d="m22 2-7 20-4-9-9-4Z"/>
  </symbol>
  <symbol id="i-circle-dashed" viewBox="0 0 24 24">
    <path d="M12 2v2"/>
    <path d="M12 20v2"/>
    <path d="m4.93 4.93 1.41 1.41"/>
    <path d="m17.66 17.66 1.41 1.41"/>
    <path d="M2 12h2"/>
    <path d="M20 12h2"/>
    <path d="m4.93 19.07 1.41-1.41"/>
    <path d="m17.66 6.34 1.41-1.41"/>
  </symbol>
  <symbol id="i-cloud" viewBox="0 0 24 24">
    <path d="M17.5 19a4.5 4.5 0 1 0-.88-8.91A6 6 0 1 0 6 18.3"/>
    <path d="M7 19h10.5"/>
  </symbol>
  <symbol id="i-triangle" viewBox="0 0 24 24">
    <path d="m12 3 9 16H3Z"/>
  </symbol>
  <symbol id="i-box" viewBox="0 0 24 24">
    <path d="M21 8a2 2 0 0 0-1-1.73l-7-4a2 2 0 0 0-2 0l-7 4A2 2 0 0 0 3 8v8a2 2 0 0 0 1 1.73l7 4a2 2 0 0 0 2 0l7-4A2 2 0 0 0 21 16Z"/>
    <path d="m3.3 7 8.7 5 8.7-5"/>
    <path d="M12 22V12"/>
  </symbol>
  <symbol id="i-rocket" viewBox="0 0 24 24">
    <path d="M4.5 19.5 3 21l1.5-1.5Z"/>
    <path d="M14 4c3.5-.5 6 2 5.5 5.5L15 14l-5-5Z"/>
    <path d="m10 8-4.5 4.5a2.12 2.12 0 0 0-.5 1.5l.5 4.5 4.5.5a2.12 2.12 0 0 0 1.5-.5L16 14"/>
    <path d="m9 15-4 4"/>
    <path d="M15 9h.01"/>
  </symbol>
  <symbol id="i-bar-chart-2" viewBox="0 0 24 24">
    <path d="M18 20V10"/>
    <path d="M12 20V4"/>
    <path d="M6 20v-6"/>
  </symbol>
  <symbol id="i-credit-card" viewBox="0 0 24 24">
    <rect x="2" y="5" width="20" height="14" rx="2"/>
    <path d="M2 10h20"/>
    <path d="M7 15h2"/>
    <path d="M13 15h4"/>
  </symbol>
  <symbol id="i-globe" viewBox="0 0 24 24">
    <circle cx="12" cy="12" r="10"/>
    <path d="M2 12h20"/>
    <path d="M12 2a15 15 0 0 1 0 20"/>
    <path d="M12 2a15 15 0 0 0 0 20"/>
  </symbol>
  <symbol id="i-layers" viewBox="0 0 24 24">
    <path d="m12 3 9 4.5-9 4.5-9-4.5Z"/>
    <path d="m3 12 9 4.5 9-4.5"/>
    <path d="m3 16.5 9 4.5 9-4.5"/>
  </symbol>
  <symbol id="i-dollar-sign" viewBox="0 0 24 24">
    <path d="M12 2v20"/>
    <path d="M17 5H9.5a3.5 3.5 0 0 0 0 7H14.5a3.5 3.5 0 0 1 0 7H6"/>
  </symbol>
  <symbol id="i-bar-chart" viewBox="0 0 24 24">
    <path d="M3 3v18h18"/>
    <path d="M8 17V9"/>
    <path d="M13 17V5"/>
    <path d="M18 17v-4"/>
  </symbol>
  <symbol id="i-instagram" viewBox="0 0 24 24">
    <rect x="2.5" y="2.5" width="19" height="19" rx="5"/>
    <circle cx="12" cy="12" r="4"/>
    <path d="M17.5 6.5h.01"/>
  </symbol>
  <symbol id="i-twitter" viewBox="0 0 24 24">
    <path d="M22 5.9c-.7.3-1.5.5-2.3.7a4 4 0 0 0 1.7-2.2 8 8 0 0 1-2.6 1A4 4 0 0 0 12 8.3a11.3 11.3 0 0 1-8.2-4.1 4 4 0 0 0 1.2 5.3A4 4 0 0 1 3.4 9v.1A4 4 0 0 0 6.6 13a4 4 0 0 1-1.8.1A4 4 0 0 0 8.6 16a8.1 8.1 0 0 1-5 1.7A7.7 7.7 0 0 1 2 17.6a11.4 11.4 0 0 0 6.2 1.8c7.4 0 11.5-6.1 11.5-11.5v-.5A8 8 0 0 0 22 5.9"/>
  </symbol>
  <symbol id="i-linkedin" viewBox="0 0 24 24">
    <path d="M16 8a6 6 0 0 1 6 6v7h-4v-7a2 2 0 0 0-4 0v7h-4V9h4v2"/>
    <path d="M2 9h4v12H2Z"/>
    <path d="M4 4h.01"/>
  </symbol>
  <symbol id="i-mail" viewBox="0 0 24 24">
    <rect x="3" y="5" width="18" height="14" rx="2"/>
    <path d="m3 7 9 6 9-6"/>
  </symbol>
  <symbol id="i-phone" viewBox="0 0 24 24">
    <path d="M22 16.92v3a2 2 0 0 1-2.18 2 19.8 19.8 0 0 1-8.63-3.07 19.5 19.5 0 0 1-6-6A19.8 19.8 0 0 1 2.12 4.18 2 2 0 0 1 4.11 2h3a2 2 0 0 1 2 1.72c.12.9.33 1.78.62 2.62a2 2 0 0 1-.45 2.11L8 9.73a16 16 0 0 0 6.27 6.27l1.28-1.28a2 2 0 0 1 2.11-.45c.84.29 1.72.5 2.62.62A2 2 0 0 1 22 16.92Z"/>
  </symbol>
  <symbol id="i-sun" viewBox="0 0 24 24">
    <circle cx="12" cy="12" r="4"/>
    <path d="M12 2v2"/>
    <path d="M12 20v2"/>
    <path d="m4.93 4.93 1.41 1.41"/>
    <path d="m17.66 17.66 1.41 1.41"/>
    <path d="M2 12h2"/>
    <path d="M20 12h2"/>
    <path d="m6.34 17.66-1.41 1.41"/>
    <path d="m19.07 4.93-1.41 1.41"/>
  </symbol>
  <symbol id="i-moon" viewBox="0 0 24 24">
    <path d="M21 12.8A9 9 0 1 1 11.2 3 7 7 0 0 0 21 12.8Z"/>
  </symbol>
</svg>
